<?xml version="1.0" encoding="utf-8"?>
<!DOCTYPE svg PUBLIC "-//W3C//DTD SVG 1.0//EN" "http://www.w3.org/TR/2001/REC-SVG-20010904/DTD/svg10.dtd">
<svg version="1.0" xmlns="http://www.w3.org/2000/svg" width="1024px" height="1536px" viewBox="0 0 1024 1536" preserveAspectRatio="xMidYMid meet">
 <g fill="#1b1c1b">
  <path d="M535.3 1329 c-5.3 -2.4 -10.9 -8.3 -14.4 -15.2 -1.6 -3.2 -2.6 -5.8 -2.3 -5.8 0.4 0 0.2 -0.6 -0.4 -1.2 -0.5 -0.7 -1.3 -2.6 -1.6 -4.3 -0.3 -1.6 -1 -5.2 -1.6 -8 -1.4 -7 -0.2 -27.5 2 -31.5 0.5 -0.9 0.6 -2 0.3 -2.4 -0.3 -0.3 -0.2 -0.6 0.3 -0.6 0.5 0 1 -0.9 1.1 -2 0.1 -1.1 1.1 -3.2 2.2 -4.6 1.2 -1.5 2.1 -3.2 2.1 -3.9 0 -3.3 14.6 -14.5 17.1 -13 0.4 0.3 1 0.1 1.4 -0.4 0.9 -1.6 9.8 -0.4 14.8 1.9 8.3 3.9 15.2 13.6 18.8 26.1 1.9 6.7 1.4 36.6 -0.6 40 -0.4 0.5 -0.8 1.8 -1 2.9 -0.7 3.5 -6.4 12.8 -10.1 16.2 -6 5.7 -11.1 7.9 -18.1 7.7 -3.4 -0.1 -7.9 -1 -10 -1.9z m16.6 -10.1 c1.6 -2.1 4.6 -10.3 5.6 -15.8 0.2 -0.9 0.4 -1.6 0.5 -1.6 0.4 0 1.1 -12.5 1.2 -20.5 0.2 -20.4 -4 -34.3 -11.2 -36.7 -3.4 -1.1 -3.6 -1 -7.1 2.5 -2.3 2.4 -4 5.5 -4.8 8.7 -0.7 2.8 -1.5 5.7 -1.8 6.5 -0.3 0.8 -0.6 2.4 -0.7 3.5 -0.1 1.1 -0.4 2.5 -0.7 3 -1 1.6 0.1 37 1.1 37 0.2 0 0.4 0.9 0.6 2 1.1 7.1 2.6 10 6.5 13.2 3.6 2.9 4.2 3 6.4 1.9 1.4 -0.7 3.3 -2.4 4.4 -3.7z"/>
  <path d="M450.7 1329.2 c-8.3 -0.6 -7.5 -3.5 3.8 -15.4 11 -11.6 15.5 -16.8 15.5 -17.8 0 -0.5 0.6 -1.3 1.3 -1.7 1.2 -0.8 7.2 -9.6 9.6 -14 0.6 -1.2 1.1 -3.5 1.1 -5.2 0 -1.6 0.4 -3.2 0.9 -3.6 1.5 -0.9 0.2 -11.7 -2 -16.3 -2.4 -4.9 -3.9 -5.9 -10.2 -6.7 -6 -0.8 -10.6 1.8 -14.3 8 -2.8 4.9 -4.7 6 -7.5 4.5 -2.3 -1.3 -2.3 -0.7 0.2 -7.6 3.8 -10 11.5 -15.6 25.2 -18.1 3.8 -0.7 14.5 2.4 18.4 5.3 5.2 3.9 8.6 10.6 8.5 16.7 -0.1 4.6 -0.6 9.1 -1.2 10.7 -0.1 0.3 -0.3 1 -0.4 1.5 -0.1 0.6 -1.2 3.3 -2.5 6 -1.3 2.8 -2.5 5.2 -2.5 5.5 -0.7 2.7 -11.6 16.8 -18.6 24 -4.8 5 -8.4 9.2 -8.1 9.5 1.2 0.7 13.4 0.7 18.8 -0.1 3.8 -0.5 6.3 -1.6 9 -3.9 6.1 -5.1 8.2 -5.2 9 -0.2 0.5 2.9 -4.7 17.1 -6.5 18.2 -1.6 0.9 -37.4 1.5 -47.5 0.7z"/>
  <path d="M467.9 1205.2 c-1.1 -0.7 -1.9 -1.9 -1.7 -2.5 0.3 -1.9 -1.3 -9.1 -2.3 -10.3 -0.5 -0.7 -0.9 -1.6 -0.8 -2 0.1 -0.5 -0.1 -2.1 -0.5 -3.5 -0.4 -1.4 -0.9 -3.4 -1.1 -4.5 -0.2 -1 -0.4 -1.9 -0.5 -1.9 -0.2 0 -1 -3.4 -1.4 -6 -0.2 -1.1 -0.5 -2.2 -0.6 -2.5 -0.1 -0.3 -0.3 -0.9 -0.4 -1.5 -1 -5.1 -2.1 -9.6 -3.3 -12.4 -0.8 -1.8 -1.2 -3.6 -0.9 -3.9 0.3 -0.3 0.1 -1.1 -0.5 -1.9 -0.6 -0.7 -0.8 -1.3 -0.5 -1.3 0.4 0 0.2 -0.9 -0.4 -2 -1.1 -2.1 -1.7 -6.3 -2.5 -17.5 -0.4 -6.3 0.3 -11 3.1 -21 1.1 -3.9 0.9 -6 -0.4 -5.7 -2.1 0.4 -9.4 -2 -12.6 -4.1 -1.5 -1.1 -3.5 -3.6 -4.4 -5.6 -1.7 -3.9 -2.6 -18.8 -1.2 -19.6 0.5 -0.3 0.7 -1.2 0.3 -2 -0.3 -0.8 0.1 -1.5 0.8 -1.5 0.7 0 0.9 -0.3 0.6 -0.7 -0.9 -0.9 2.3 -4.3 4 -4.3 0.7 0 2.2 2 3.3 4.5 1.1 2.5 2.3 4.6 2.7 4.6 4.7 0.8 6.5 0.9 10.8 1 6.1 0 12.8 2.8 15.1 6.4 2.2 3.3 2.9 10.1 1.4 13.4 -3.1 6.9 -4.9 9.6 -6.4 9.3 -1.4 -0.3 -3.7 2.7 -4.3 5.8 -2.2 11.4 -2.3 25.3 -0.2 29.2 0.6 1.1 0.8 2.6 0.5 3.3 -0.3 0.8 -0.1 1.7 0.3 2 0.8 0.4 2.1 5.5 2.1 7.8 0 0.4 0.6 2.3 1.4 4.2 0.8 1.9 1.2 3.5 0.9 3.5 -0.3 0 0 0.7 0.7 1.5 0.7 0.8 0.9 1.5 0.4 1.5 -0.5 0 -0.4 0.4 0.2 0.8 0.6 0.4 2.1 3.7 3.3 7.5 2.2 6.5 4.2 9.7 6.2 9.7 0.5 0 2.2 -2.8 3.8 -6.2 4.2 -9.4 5.1 -11.6 7.7 -19.5 1.3 -4 2.9 -8.5 3.6 -10 0.6 -1.5 1.2 -3 1.3 -3.3 0.1 -0.3 0.9 -2.1 1.7 -4 0.9 -1.9 2.4 -6.2 3.3 -9.5 1 -3.3 2 -6.4 2.4 -7 0.3 -0.5 0.6 -1.3 0.7 -1.7 0.1 -0.5 0.2 -0.9 0.3 -1 0.1 -0.2 0.4 -1.8 0.7 -3.7 0.2 -1.9 0.9 -3.9 1.4 -4.6 0.5 -0.7 0.7 -1.4 0.4 -1.8 -0.3 -0.3 -0.1 -1.4 0.5 -2.5 1.2 -2.3 -0.3 -4.2 -3.5 -4.2 -1.3 0 -2.6 -0.5 -2.9 -1 -0.4 -0.6 -1 -0.8 -1.5 -0.5 -1 0.6 -8 -6 -8.1 -7.7 -0.1 -0.7 -0.1 -1.7 0 -2.2 0.1 -0.4 -0.2 -1.3 -0.7 -2 -1.1 -1.3 -1 -9.6 0.1 -11.3 0.5 -0.7 0.6 -1.6 0.3 -2.1 -0.6 -1.1 3.8 -8.1 6.2 -9.8 2 -1.4 2.3 -1.2 4.6 2.3 4.5 6.8 5.2 7.3 9.9 7.7 5.7 0.5 7.9 1.7 11.2 6 2.9 3.9 3.5 5.8 4 13.9 0.3 5.2 0.1 5.9 -2.1 7.3 -1.3 0.9 -3 1.4 -3.7 1.1 -2.5 -0.9 -3.6 0.8 -4.6 7.1 -0.5 3.4 -1.3 6.8 -1.8 7.5 -0.4 0.6 -0.9 2.3 -1.1 3.7 -0.2 1.3 -0.7 3 -1.3 3.6 -0.5 0.6 -0.6 1.3 -0.4 1.6 0.3 0.3 0.1 1.6 -0.4 2.9 -0.5 1.3 -0.9 2.7 -1 3.2 0 0.4 -0.8 2.1 -1.6 3.7 -0.8 1.6 -1.5 3.1 -1.4 3.2 0.4 0.6 -2.4 8.4 -3.5 9.7 -0.6 0.8 -1 1.6 -0.8 1.8 0.7 0.7 -1 6.3 -1.9 6.3 -0.6 0 -0.8 0.4 -0.5 0.8 0.3 0.5 -0.7 3.7 -2.1 7.3 -1.4 3.5 -2.6 7 -2.6 7.7 0 0.6 -0.3 1.2 -0.7 1.2 -0.4 0 -0.7 1.2 -0.6 2.6 l0.1 2.5 9.5 0 c5.2 0 13.8 0 19 0 l9.5 -0.1 3 -5.8 c1.6 -3.1 3.2 -5.9 3.5 -6.2 0.3 -0.3 2.9 -5.2 5.8 -11 2.9 -5.8 8.6 -17 12.7 -25 4.2 -8 8.6 -17.1 9.9 -20.2 3.2 -7.7 2.4 -8.7 -8 -9.7 -4.7 -0.5 -9.1 -1.5 -10.7 -2.6 -3.6 -2.3 -6.9 -12.7 -6.3 -19.6 0.6 -6.6 3.4 -13.6 5.6 -14.2 2 -0.5 5.6 2.6 4.7 4 -0.3 0.5 0.6 1.8 1.9 2.8 2.4 1.8 7.9 2.7 16.2 2.8 1.7 0 3.2 0.4 3.2 0.9 0 0.5 0.4 0.7 0.9 0.4 1.5 -1 9.2 5.4 10.6 8.7 1.5 3.5 1.1 15.5 -0.5 17.1 -0.6 0.6 -1 1.8 -1 2.7 0 1 -0.6 2.4 -1.2 3.1 -2.1 2.1 -5.6 8.8 -10.4 19.8 -1.6 3.6 -3.3 6.8 -3.9 7.2 -0.5 0.4 -0.6 0.8 -0.2 0.8 0.4 0 0.2 1 -0.5 2.3 -0.7 1.2 -1.3 2.4 -1.3 2.7 0 0.5 -2.9 6.7 -6.4 13.9 -0.9 1.9 -1.5 3.7 -1.5 4 0.1 0.3 -0.5 1.5 -1.2 2.6 -0.8 1.1 -1.4 2.7 -1.4 3.7 0 1 -0.4 1.8 -1 1.8 -0.5 0 -1 0.4 -1 0.9 0 0.5 -0.4 2 -0.9 3.3 -0.5 1.3 -0.9 2.6 -1 3.1 0 0.4 -0.8 2.2 -1.8 4 -0.9 1.7 -1.6 3.6 -1.5 4 0.1 0.4 -0.5 2.1 -1.3 3.7 -0.9 1.7 -1.3 3 -1.1 3 0.3 0 -0.1 1.5 -0.8 3.3 -0.7 1.7 -1.1 3.8 -0.9 4.5 0.3 0.6 0 1.2 -0.6 1.2 -0.6 0 -0.8 0.6 -0.5 1.3 0.2 0.7 -0.5 2.2 -1.6 3.2 -2 1.8 -4.3 1.9 -37.1 2 -28.4 0.1 -35.3 -0.1 -37 -1.3z"/>
  <path d="M359.4 1045.6 c-1.1 -0.9 -1.4 -6.4 -1.5 -30.2 -0.1 -16.1 0.2 -29.7 0.5 -30.3 0.5 -0.7 6.6 -1.1 18.6 -1.1 13.1 0 18.1 -0.3 18.6 -1.2 0.5 -0.7 0.9 -94.4 1 -208.1 0.1 -153.1 0.4 -207.1 1.3 -207.6 1.4 -0.9 65.7 -0.8 66.6 0.1 0.4 0.4 0.8 7.8 1 16.5 l0.2 15.8 11.4 0 11.4 -0.1 0 -15.6 c0 -8.6 0.4 -16 0.8 -16.5 0.5 -0.4 12 -0.8 25.7 -0.9 24.1 -0.1 24.9 0 25.4 1.9 0.3 1.1 0.1 2.7 -0.4 3.6 -0.4 0.9 -1.1 4.2 -1.4 7.4 -0.4 3.2 -1 6.8 -1.5 8 -0.4 1.2 -0.6 2.8 -0.4 3.5 0.3 0.7 0 1.8 -0.5 2.5 -0.6 0.7 -1 2.1 -0.8 3.2 0.3 1.7 -0.2 4.1 -2 11 -0.7 2.7 -1.4 6.5 -1.9 9.5 -0.2 1.4 -0.4 2.5 -0.5 2.5 -0.2 0 -0.3 0.6 -1.9 10.5 -1.4 7.9 -1.6 9 -2.5 11.2 -0.4 0.9 -0.5 2.1 -0.2 2.7 0.4 0.5 0.2 1.2 -0.3 1.5 -0.5 0.4 -0.8 1.4 -0.6 2.4 0.2 0.9 0.4 2 0.4 2.5 0.2 1.4 3 0.7 4 -1 0.6 -1 1.1 -1.3 1.1 -0.8 0 0.7 0.3 0.6 0.8 0 0.8 -1.1 5.3 -4.9 9.6 -8 1.5 -1.1 3.7 -2.8 4.8 -3.7 1.2 -1 2.4 -1.8 2.9 -1.8 0.4 0 2.4 -1.7 4.4 -3.7 l3.7 -3.7 -0.3 -29.9 c-0.3 -25.8 -0.2 -30 1.1 -30.7 1.8 -1 68.3 -0.8 69 0.2 0.3 0.3 0.4 93.7 0.3 207.5 -0.1 141.2 0.2 207.2 0.9 208.1 0.8 0.9 5.8 1.2 18.9 1.2 11.1 0 18 0.4 18.4 1 0.4 0.6 0.8 14.3 1 30.5 0.3 22 0.1 29.6 -0.8 30.2 -2 1.2 -304.6 1.1 -306.3 -0.1z m146.6 -12 c55.3 0 110.9 0.1 123.5 0.3 l23 0.3 0 -18.3 0 -18.4 -139.9 0.2 c-76.9 0.1 -140 0.4 -140.3 0.6 -0.5 0.6 -1 35.6 -0.5 36.2 0.2 0.2 7.9 0.1 17 -0.2 9.2 -0.3 61.9 -0.6 117.2 -0.7z m-18.1 -51.4 c1.1 -2 1 -35.4 -0.1 -36.2 -0.5 -0.4 -19.9 -0.4 -69.5 -0.1 l-8.3 0.1 0 17.9 c0 9.9 0.2 18.5 0.5 19.3 0.4 1.1 7.6 1.2 38.5 1 35.3 -0.2 38 -0.4 38.9 -2z m76.6 0.6 c0.9 -0.8 0.9 -35.7 0 -36.6 -0.8 -0.8 -48.3 -1 -57 -0.2 l-6 0.5 -0.1 17.5 c0 9.6 0.3 18 0.8 18.6 0.9 1.3 61.1 1.5 62.3 0.2z m48.6 -0.4 c0.7 -0.9 0.9 -5.6 0.5 -14.6 -0.3 -7.3 -0.6 -15.4 -0.6 -17.9 l0 -4.7 -16.5 0.4 c-9.1 0.2 -16.9 0.6 -17.4 0.8 -0.4 0.3 -0.7 8.5 -0.5 18.2 0.2 13.2 0.6 17.9 1.6 18.6 2.2 1.4 31.6 0.7 32.9 -0.8z m-179.8 -49.5 c12.5 -0.1 17 -0.5 17.3 -1.4 0.3 -0.7 0.6 -7.9 0.7 -16 0.2 -14.4 0.2 -14.8 -2 -15.6 -3.6 -1.3 -37.1 -1 -38 0.4 -0.4 0.7 -0.7 8.5 -0.8 17.5 l0 16.3 3 -0.5 c1.7 -0.3 10.6 -0.6 19.8 -0.7z m101.4 -1.2 c0.6 -0.7 0.4 -30.7 -0.3 -31.8 -0.2 -0.4 -15.5 -0.8 -33.8 -0.9 -27.5 0 -33.5 0.2 -34.5 1.4 -0.8 0.9 -1.1 6 -0.9 16.2 l0.3 14.9 3.5 0.5 c4.4 0.6 65 0.3 65.7 -0.3z m78.1 -0.2 c1 -0.9 0.3 -30.8 -0.7 -31.5 -0.5 -0.3 -15 -0.5 -32.1 -0.5 l-31.2 0 0 16 0 16 4.3 0.5 c6.4 0.7 58.9 0.3 59.7 -0.5z m0.7 -198 l0 -153 -21.3 0 -21.3 0 0 25.5 0 25.5 -5 10.1 c-2.7 5.6 -4.9 10.7 -4.9 11.3 0 0.6 -0.4 1.1 -1 1.1 -0.5 0 -1 0.6 -1 1.4 0 0.7 -3.9 9.4 -8.6 19.2 -4.7 9.9 -9.7 20.4 -11.1 23.4 -1.5 3 -3.1 5.8 -3.7 6.2 -0.6 0.4 -0.8 0.8 -0.4 0.8 0.8 0 -6.4 15.3 -8.1 17.4 -0.6 0.7 -0.8 1.6 -0.4 1.9 0.3 0.4 0.2 0.7 -0.3 0.7 -0.6 0 -1.8 2.5 -2.9 5.5 -1 3 -2.2 5.5 -2.6 5.5 -1.1 0 -2.2 6.2 -1.2 6.9 0.5 0.3 1.9 2.1 3.2 3.9 1.3 1.9 3.5 4.6 4.9 6 1.3 1.5 3.6 4.5 5 6.7 1.4 2.2 3.1 4.4 3.8 4.8 0.8 0.4 1.4 1.6 1.4 2.5 0 2.1 -6.8 16.4 -8.2 17.3 -0.5 0.3 -0.9 0.9 -0.8 1.3 0.2 1 -8.1 17 -9.2 17.7 -0.6 0.3 -0.9 0.9 -0.9 1.3 0.2 1 -8 17 -9.7 18.9 -0.8 0.9 -1.3 1.7 -0.9 1.7 0.3 0 -0.6 2.1 -2 4.8 -1.4 2.6 -4.3 8.2 -6.5 12.4 -2.1 4.3 -4.3 8 -4.9 8.3 -0.5 0.4 -0.7 1.1 -0.4 1.6 0.4 0.5 0.2 0.9 -0.2 0.9 -0.5 0 -1.5 1.6 -2.2 3.5 -0.7 1.9 -1.7 3.5 -2.2 3.5 -0.6 0 -0.7 0.5 -0.4 1 0.3 0.6 0.2 1 -0.4 1 -0.6 0 -1.4 1.2 -1.7 2.8 -0.7 2.7 -4.7 10.5 -6.7 13 -1.1 1.4 -10.2 0.9 -12.2 -0.8 -1 -0.8 0.2 -4 5.7 -14.8 3.9 -7.5 7.5 -13.9 7.9 -14 0.5 -0.2 0.7 -0.8 0.3 -1.3 -0.3 -0.5 0 -0.9 0.5 -0.9 0.6 0 1.1 -0.9 1.1 -2 0 -1.1 0.5 -2 1.2 -2 0.6 0 0.9 -0.3 0.5 -0.6 -0.3 -0.3 0.4 -2.3 1.7 -4.3 1.2 -2 2.8 -5.1 3.5 -6.8 0.8 -1.8 1.7 -3.3 2.2 -3.3 0.5 0 0.9 -0.9 0.9 -1.9 0 -1.1 0.4 -2.2 0.8 -2.5 0.5 -0.3 2.6 -4 4.7 -8.3 2.1 -4.3 4.1 -8 4.4 -8.3 0.3 -0.3 2.7 -4.8 5.3 -10 2.7 -5.2 6.8 -13.3 9.2 -18 5.2 -9.9 5.8 -7.8 -6.4 -23 -4.2 -5.2 -8 -10 -8.4 -10.7 -0.3 -0.7 1.5 -5.4 4.1 -10.5 2.6 -5.1 4.8 -9.7 4.9 -10.3 0.1 -0.5 3.4 -7.6 7.3 -15.8 3.9 -8.1 7.1 -15 7.1 -15.2 0 -0.4 15.5 -32.6 16.6 -34.7 1.2 -1.9 -1.8 -1.5 -4.4 0.7 -1.6 1.4 -3.5 2.5 -4.1 2.5 -0.6 0 -1.1 0.4 -1.1 0.9 0 1 -22.4 18.1 -23.8 18.1 -0.6 0 -1.2 0.5 -1.4 1.2 -0.2 0.6 -1.2 0.9 -2.1 0.5 -1.3 -0.5 -1.5 -1.1 -0.8 -3.1 0.6 -1.3 0.7 -2.6 0.4 -3 -0.3 -0.3 -0.2 -1.3 0.2 -2.3 0.4 -1 1 -2.9 1.2 -4.3 0.2 -1.4 0.5 -3.2 0.7 -4 0.1 -0.8 0.6 -3.7 1 -6.5 0.4 -2.7 1 -5.7 1.3 -6.5 0.4 -0.8 0.7 -2.4 0.9 -3.5 0.1 -1.1 0.5 -3.1 0.8 -4.5 0.3 -1.4 0.9 -3.8 1.3 -5.5 0.4 -1.6 0.6 -3.6 0.4 -4.3 -0.1 -0.8 0.2 -1.9 0.7 -2.5 0.5 -0.7 1 -2.9 1 -5 0.1 -2 0.6 -4.6 1.2 -5.7 0.6 -1.1 0.8 -2.5 0.5 -3 -0.3 -0.6 -0.3 -1.6 0.1 -2.2 0.8 -1.3 1.4 -4.1 1.5 -7 0 -1 0.4 -2 0.9 -2.3 0.5 -0.3 0.7 -1.2 0.3 -2 -0.3 -0.8 -0.2 -2.3 0.3 -3.2 0.4 -1 0.9 -2.9 1 -4.3 0.2 -1.4 0.6 -3.6 1 -5 0.4 -1.4 0.6 -3.1 0.5 -3.8 -0.1 -0.8 0.2 -1.9 0.7 -2.5 0.6 -0.7 0.6 -2.1 0.1 -3.5 -0.8 -2.2 -1.2 -2.3 -11.6 -2 l-10.8 0.3 -0.3 15.1 c-0.2 14.8 -0.3 15.2 -2.5 15.8 -4.1 1 -44.9 0.8 -46 -0.3 -0.5 -0.5 -0.9 -6.5 -0.9 -14.1 0.1 -7.3 -0.3 -14.1 -0.9 -15.1 -0.9 -1.8 -2.4 -1.9 -19.9 -1.9 -12.5 0 -19.1 0.4 -19.6 1.1 -0.8 1.4 -0.9 303.3 0 304.7 0.5 0.8 28.3 1 101.4 0.9 l100.7 -0.2 0 -153z"/>
  <path d="M202.7 807.2 c-2.3 -0.5 -2.4 -5.5 -0.2 -5.8 0.6 0 1.5 -0.2 2.1 -0.2 0.5 -0.1 2.4 -1.6 4.1 -3.2 3.3 -3.3 6.7 -9.8 10.4 -20 1.2 -3.6 2.5 -6.7 2.8 -7 0.3 -0.3 0.8 -1.4 0.9 -2.5 0.2 -1.1 0.8 -2.2 1.3 -2.3 0.5 -0.2 0.7 -0.8 0.3 -1.3 -0.3 -0.5 0 -0.9 0.6 -0.9 0.6 0 0.9 -0.4 0.6 -0.8 -0.3 -0.5 0.6 -3.2 1.9 -6 1.3 -2.9 2.4 -5.5 2.4 -5.7 0.1 -0.3 0.8 -2 1.8 -3.8 0.9 -1.7 1.8 -3.9 1.9 -4.7 0.2 -0.8 1.4 -3.7 2.7 -6.5 3.4 -6.9 5.5 -11.8 5.7 -13 0.1 -0.5 0.8 -2.1 1.5 -3.5 0.7 -1.4 2.5 -5.5 4 -9.3 3.6 -8.8 6.1 -10.5 9 -6.1 0.8 1.3 1.4 2.4 1.1 2.4 -0.2 0 1.1 3.5 2.9 7.7 1.9 4.2 3.2 8 2.9 8.5 -0.3 0.4 -0.1 0.8 0.4 0.8 0.9 0 2.7 4.7 2.4 6.3 -0.1 0.4 0.2 0.7 0.6 0.7 0.7 0 1.9 2.9 3.7 9 0.1 0.3 0.8 1.9 1.5 3.5 0.7 1.7 1.4 3.2 1.5 3.5 0.1 0.3 0.7 1.9 1.5 3.5 4.9 11.1 6.2 14.2 6.6 15.9 0.2 1.1 0.8 2.4 1.4 3 0.5 0.5 1 1.7 1 2.6 0 0.9 1.1 4 2.5 6.8 1.4 2.9 2.5 5.8 2.5 6.4 0 0.7 0.7 2.2 1.5 3.2 0.8 1 1.2 2.3 0.9 2.7 -0.3 0.5 0 0.9 0.6 0.9 0.6 0 0.9 0.4 0.6 0.9 -0.9 1.4 6.3 7.8 9.4 8.5 2.6 0.5 2.8 0.8 2.1 3.3 l-0.7 2.8 -19.9 0 c-17.5 0 -19.9 -0.2 -20.9 -1.7 -0.8 -1.4 -0.6 -2.2 1 -3.6 1.1 -1.1 3 -2.3 4.2 -2.6 3 -1 3.7 -4.7 1.9 -10 -0.8 -2.4 -1.3 -4.7 -0.9 -5 0.3 -0.3 0 -0.6 -0.7 -0.6 -0.7 0 -1 -0.4 -0.6 -0.9 0.3 -0.5 0.1 -1.2 -0.5 -1.6 -0.6 -0.4 -0.8 -0.9 -0.6 -1.3 0.2 -0.4 -0.2 -1.6 -1 -2.7 -1.3 -1.8 -2.8 -2 -12.7 -2.1 -6.2 -0.1 -13.4 0 -16.2 0.3 l-5 0.5 -2.8 7.2 c-4.9 12.5 -4.4 16.4 1.9 18 2 0.5 2.4 1.1 1.8 2.9 -0.3 1.2 -0.9 2.4 -1.1 2.7 -0.5 0.5 -25.9 0.7 -28.6 0.2z m57 -41.7 c1 -0.3 -2.1 -9.5 -9.5 -27.7 l-1.5 -3.7 -2.6 5.2 c-1.4 2.9 -2.6 6.1 -2.8 7.1 -0.2 1.1 -0.7 2.4 -1.1 3 -0.8 1 -4.3 9.8 -4.9 12.1 -0.1 0.6 -0.5 1.9 -0.8 3 -0.6 1.9 -0.2 2 10.7 1.7 6.2 -0.2 11.8 -0.5 12.5 -0.7z"/>
  <path d="M727.2 806.7 c-0.6 -0.7 -1.2 -2.3 -1.4 -3.7 -0.1 -1.4 -0.6 -2.7 -1 -3 -0.3 -0.3 -0.8 -2.4 -1 -4.8 -0.3 -2.3 -0.7 -4.5 -1.1 -4.9 -1.2 -1.1 -0.8 -4.3 0.6 -4.4 2 -0.2 4.2 0.3 4.7 1 3.9 5.8 5.1 6.5 11 6.7 3.4 0.1 6.3 -0.2 6.6 -0.8 0.4 -0.6 -1.1 -2.7 -3.3 -4.7 -7.8 -7.1 -13.5 -15.6 -16.8 -25.4 -1.5 -4.5 -2.1 -15.3 -1.1 -19.7 0.3 -1.4 0.8 -3.8 1.1 -5.4 1 -6.5 6.4 -14.7 14.2 -21.7 2.5 -2.3 13.3 -8.2 13.3 -7.4 0 0.4 0.6 0.3 1.3 -0.3 0.6 -0.6 1.4 -1 1.7 -1.1 0.3 0 1.2 -0.2 2 -0.5 1.4 -0.4 8.2 -1.3 16.5 -2.1 4.2 -0.5 15.2 1.1 19.7 2.7 1.5 0.6 3.1 1 3.5 1 1.8 0 9.1 4.3 13.8 8.1 7.8 6.4 10.4 9.5 13.7 16.5 2.9 6.1 3.2 7.5 3.2 16.9 0 6.6 -0.5 10.8 -1.2 11.5 -0.7 0.7 -1.2 2.1 -1.2 3.3 0 1.1 -0.7 3.1 -1.6 4.3 -0.8 1.2 -1.2 2.2 -0.8 2.2 0.4 0 0.1 0.8 -0.7 1.8 -0.8 0.9 -2.1 3 -2.9 4.6 -0.8 1.6 -4.1 5.5 -7.3 8.7 -3.3 3.2 -5.6 6.2 -5.3 6.8 0.7 1.1 9.1 0.4 11.8 -1 0.9 -0.5 2.5 -2.3 3.5 -3.9 1.3 -2.3 2.2 -2.9 3.8 -2.4 3 0.9 3.9 2.1 3 4.1 -0.8 1.9 -1.1 3.1 -1.8 7.3 -1.1 7 -2.7 9.8 -6 10.4 -5.2 0.9 -36.1 0.6 -37.7 -0.4 -1 -0.6 -1.3 -2.3 -1.1 -5.6 0.2 -4.2 0.8 -5.2 4.9 -8.8 5.5 -4.9 5.2 -4.7 10.7 -12 2.4 -3.3 4.2 -6.3 3.9 -6.7 -0.2 -0.4 0 -1 0.6 -1.4 0.5 -0.3 1 -1.5 1 -2.6 0 -1 0.5 -1.9 1.1 -1.9 0.5 0 0.8 -0.4 0.5 -0.8 -0.3 -0.5 0.1 -2.8 0.8 -5.3 0.8 -2.7 1.2 -7.6 1 -12.4 -0.7 -13.9 -1.2 -15.9 -6.5 -23.5 -5.4 -7.7 -14.4 -12.4 -24.5 -12.7 -10.7 -0.3 -17.8 2.8 -24.1 10.4 -3.3 3.9 -4.4 6.5 -6.2 14 -2.2 9.1 -2.2 11.1 -0.5 23.8 0.3 2.2 1.2 5.3 2 6.9 0.7 1.6 1.4 3.5 1.4 4.2 0 0.7 0.6 1.9 1.4 2.6 0.7 0.8 2.1 2.8 2.9 4.5 0.9 1.7 4.7 6.1 8.3 9.8 6.4 6.3 6.8 6.9 7.2 12 0.4 5.2 0.4 5.3 -2.4 5.9 -5.7 1.1 -38.2 0.5 -39.2 -0.7z"/>
  <path d="M425.3 554.8 c-0.8 -1.5 -1.4 -3.3 -1.7 -6.3 -0.1 -1.1 -0.5 -2.9 -0.9 -4 -0.3 -1.1 -0.9 -4.2 -1.2 -7 -0.2 -2.7 -0.7 -6.1 -0.9 -7.5 -0.2 -1.4 -0.7 -4.7 -1.1 -7.5 -0.4 -2.7 -0.9 -5.9 -1.2 -7 -0.3 -1.1 -0.7 -3.1 -0.8 -4.5 -0.2 -1.4 -0.7 -3.6 -1 -5 -0.3 -1.4 -0.8 -4.5 -1.1 -7 -0.6 -4.3 -0.9 -6.4 -2 -14 -0.2 -1.9 -0.7 -5.1 -0.9 -7 -0.3 -1.9 -0.7 -4.8 -0.9 -6.5 -0.9 -6 -1.5 -13.5 -1.1 -13.5 0.8 0 9.9 7.1 12.6 9.9 1.5 1.4 5.3 4.9 8.5 7.6 3.2 2.8 7.3 6.4 9.2 8.2 1.8 1.7 5.4 4.9 8 7 2.6 2.1 6.9 5.9 9.6 8.5 2.6 2.6 5.7 5 6.7 5.3 1.4 0.5 5 -2.5 15.2 -12.7 18.6 -18.6 30.9 -29.8 32.9 -29.8 1.7 0 5.4 3.4 29.8 27 18.9 18.3 17 16.9 19.9 14.3 1 -1 3 -2.7 4.2 -3.9 11.9 -10.5 25.5 -22.7 34.9 -31.4 7.4 -6.9 11.4 -10 12.4 -9.7 1.2 0.4 1.5 3.7 0.5 5.2 -0.4 0.6 -1 3.7 -1.3 7 -0.3 3.3 -0.8 7.6 -1.2 9.5 -0.3 1.9 -0.7 4.6 -0.9 6 -0.1 1.4 -0.5 3.6 -0.8 5 -0.4 1.4 -0.9 4.8 -1.3 7.5 -0.3 2.8 -0.8 6.1 -1 7.5 -0.2 1.4 -0.6 5.2 -0.9 8.5 -0.3 3.3 -0.9 6.7 -1.2 7.5 -0.4 0.8 -1 4.4 -1.4 8 -0.5 3.6 -1 7.6 -1.3 9 -0.2 1.4 -0.7 4.5 -1 7 -0.9 6.7 -1.1 7.4 -1.9 8.8 -1.2 1.8 -174.2 1.8 -175.4 0z m164.2 -12 c0.4 -0.3 0.9 -3.2 1.1 -6.3 0.2 -3.1 0.7 -6.1 1.1 -6.8 0.3 -0.6 0.7 -2.2 0.8 -3.6 0.1 -1.4 0.8 -5.7 1.4 -9.6 0.7 -3.8 1.2 -8.2 1.2 -9.7 -0.1 -1.5 0.4 -3 0.9 -3.3 0.6 -0.4 0.8 -1.6 0.5 -2.6 -0.4 -1.1 -0.2 -2.6 0.4 -3.2 0.8 -1.1 0.9 -3.4 0.2 -7.7 -0.1 -0.3 -0.5 0 -0.9 0.6 -0.4 0.5 -4.7 4.6 -9.7 8.9 -4.9 4.4 -11.5 10.3 -14.5 13.1 -6.5 6.1 -11.6 10.4 -12.3 10.4 -0.7 0 -18.6 -17.2 -33.7 -32.2 -6.4 -6.5 -12.2 -11.8 -12.8 -11.8 -0.6 0 -5.3 4.2 -10.5 9.4 -19.5 19.4 -35 33.6 -36.7 33.6 -1.7 0 -5.3 -3 -19.5 -16.1 -2.7 -2.6 -6.6 -6 -8.5 -7.5 -1.9 -1.6 -4.5 -4.2 -5.9 -5.7 -1.8 -2.2 -2.6 -2.5 -3.7 -1.6 -0.9 0.8 -1.2 2 -0.7 3.3 0.6 2 1.1 5 1.8 11.1 0.2 1.7 0.4 3 0.5 3 0.1 0 0.3 1.1 0.5 2.5 0.2 1.4 0.6 4.3 0.9 6.5 0.3 2.2 0.9 6 1.2 8.3 0.3 2.4 0.9 5.5 1.5 6.9 0.5 1.3 0.9 4.1 0.9 6.2 0 2.1 0.2 4 0.5 4.2 0.7 0.8 153.3 0.5 154 -0.3z"/>
  <path d="M507 447.6 c-0.3 -0.2 -3.6 -0.6 -7.5 -0.9 -3.9 -0.2 -7.1 -0.9 -7.3 -1.6 -0.2 -0.6 -0.8 -0.9 -1.3 -0.6 -0.5 0.3 -3.4 -0.8 -6.6 -2.6 -11.8 -6.4 -25.3 -18 -25.3 -21.6 0 -3 4.2 -8 13.6 -16.1 4.3 -3.8 21.2 -12.4 22.6 -11.6 0.5 0.3 1.6 0 2.4 -0.7 1.8 -1.5 23.3 -2.6 26.1 -1.4 2.5 1.1 4.5 1.6 6.6 1.8 0.9 0.1 1.7 0.4 1.7 0.7 0 0.3 0.8 0.6 1.9 0.7 6.4 0.5 22.8 11.7 29.5 20.3 3.7 4.7 4.2 5.9 3.3 7.5 -1.5 2.8 -10.9 11.5 -12.4 11.5 -0.7 0 -1.3 0.4 -1.3 0.9 0 1.1 -13.5 9 -15.9 9.4 -0.9 0.1 -2.2 0.6 -2.8 1 -0.7 0.5 -1.3 0.5 -1.3 0 0 -0.4 -0.4 -0.3 -0.8 0.4 -0.4 0.7 -2.6 1.5 -4.7 1.8 -6.5 0.9 -20 1.6 -20.5 1.1z m7 -12.6 c0 -0.5 1 -1 2.2 -1 2.6 0 9.8 -7.3 9.8 -10 0 -1 0.4 -2.1 0.9 -2.4 1.3 -0.8 -0.6 -9.7 -2.7 -12.5 -3 -4 -6.5 -6.2 -10.7 -6.5 -4.6 -0.3 -8.1 1.7 -12.1 7 -5 6.5 -2.4 18.6 4.8 22.9 1.8 1.1 3.6 1.9 4.1 1.7 0.4 -0.1 0.7 0.3 0.7 0.8 0 0.6 0.7 1 1.5 1 0.8 0 1.5 -0.4 1.5 -1z m-26.5 -8 c0.4 -0.6 0.3 -1.6 -0.2 -2.3 -1 -1.2 -0.9 -3.5 0.1 -11.5 l0.6 -4.4 -2.9 1.9 c-4.5 2.8 -10.1 7.9 -10.1 9.1 0 0.6 1.5 2.1 3.3 3.3 1.7 1.3 3.4 2.6 3.7 3 0.5 0.6 2.9 1.7 4.2 1.8 0.4 0.1 1 -0.4 1.3 -0.9z m58.8 -3.8 c2.6 -1.9 4.7 -3.6 4.7 -3.8 0 -1.1 -12.3 -10.3 -13.2 -9.8 -0.6 0.4 -0.6 1 0.1 1.7 0.6 0.6 1.1 4.6 1.1 9 0 6 0.3 7.6 1.3 7.1 0.6 -0.5 3.3 -2.3 6 -4.2z"/>
  <path d="M396 424.8 c-1.5 -1.4 -2 -2.9 -1.8 -5.1 0.5 -4.9 3.6 -5.9 19.6 -5.9 25.2 0 26.2 0.2 26.7 6.1 0.5 6 0 6.1 -22.2 6.5 -19 0.3 -20.3 0.2 -22.3 -1.6z"/>
  <path d="M587.7 425.5 c-5 -2.5 -4.8 -8.6 0.4 -10.4 1.9 -0.6 10.7 -1.1 21.1 -1.1 17.2 0 22.7 0.8 21.3 3.1 -0.4 0.5 -0.2 0.9 0.3 0.9 1.8 0 0.7 4.5 -1.5 6.4 -2 1.8 -4 1.9 -21 2 -10.6 0.1 -19.5 -0.3 -20.6 -0.9z"/>
  <path d="M448.3 397.8 c-1.3 -0.6 -2.3 -1.5 -2.3 -2 0 -0.4 -0.5 -0.8 -1.2 -0.8 -0.6 0 -2.6 -1.1 -4.4 -2.5 -1.8 -1.4 -3.5 -2.5 -3.8 -2.5 -0.9 0 -14.1 -9.3 -14.4 -10.2 -0.2 -0.4 -1 -0.8 -1.8 -0.8 -0.8 0 -1.4 -0.4 -1.4 -1 0 -0.5 -0.6 -1 -1.2 -1 -0.7 0 -2.2 -1.2 -3.2 -2.7 -3.7 -5 1.4 -11.2 7.5 -9.1 1.6 0.5 2.9 1.4 2.9 1.9 0 0.5 0.7 0.9 1.5 0.9 0.7 0 1.9 0.8 2.4 1.8 0.6 0.9 1.1 1.3 1.1 0.9 0 -0.4 3.4 1.6 7.6 4.5 4.2 2.9 9.1 6 10.8 7 1.8 0.9 4.6 2.9 6.3 4.5 2.5 2.3 2.9 3.4 2.5 6.1 -0.4 3.1 -3.4 6.3 -5.7 6.1 -0.5 0 -2 -0.5 -3.2 -1.1z"/>
  <path d="M569.6 397.4 c-2.7 -2 -3 -6.6 -0.6 -9.7 1.2 -1.5 2.8 -2.7 3.6 -2.7 0.8 0 1.4 -0.4 1.4 -0.8 0 -0.5 1.2 -1.5 2.8 -2.3 1.5 -0.8 3.5 -2.1 4.5 -3 0.9 -0.9 3 -2.2 4.5 -3 1.5 -0.8 3.6 -2.2 4.6 -3.1 1.1 -1 3.2 -2.4 4.8 -3 1.5 -0.7 2.8 -1.6 2.8 -1.9 0 -1.2 5.5 -3 7.9 -2.6 2.6 0.4 5.1 3.2 5.1 5.6 -0.1 0.9 -0.8 2.5 -1.8 3.6 -2.1 2.6 -21.4 16.1 -22.4 15.7 -0.5 -0.1 -0.8 0.2 -0.8 0.7 0 1.2 -11.2 7.8 -13.1 7.8 -0.9 0 -2.4 -0.6 -3.3 -1.3z"/>
  <path d="M467.9 364.3 c-4.6 -7 -8.6 -13.2 -8.8 -13.8 -0.2 -0.5 -1.6 -2.8 -3.1 -5 -2.1 -3 -2.5 -4.5 -1.9 -6.2 0.5 -1.3 1.5 -2.3 2.3 -2.3 0.8 0 2.1 -0.6 2.8 -1.3 0.7 -0.7 1.9 -1.2 2.6 -1.1 0.6 0.1 1.7 0.2 2.2 0.3 0.6 0 1 0.7 1 1.4 0 0.7 2.3 4.3 5 8.1 2.8 3.8 5 7.2 5 7.7 0 0.4 1 1.9 2.3 3.3 1.2 1.3 2.9 3.7 3.7 5.3 0.8 1.5 1.7 3 2 3.3 0.9 0.9 4.1 7.3 3.8 7.5 -1.9 1.7 -8.4 5.5 -9.3 5.5 -0.7 0 -5 -5.7 -9.6 -12.7z"/>
  <path d="M546.6 376.3 c-0.4 -0.5 -1.1 -0.8 -1.4 -0.8 -0.4 -0.1 -1.7 -0.4 -3 -0.9 -2.4 -0.8 -5.1 -4.6 -3.2 -4.6 0.5 0 1 -0.5 1 -1 0 -1.2 10.9 -18.3 12.2 -19.1 0.5 -0.3 1 -1 1 -1.5 0 -1.9 8.4 -14.4 9.6 -14.4 2.5 0 9.2 4.5 9.2 6.2 0 0.9 -0.7 2.3 -1.5 3.2 -0.8 0.8 -1.5 1.8 -1.5 2.3 0 0.4 -2.3 4.4 -5.1 8.8 -2.9 4.4 -7 10.9 -9.2 14.5 -4.7 7.6 -6.3 9.1 -8.1 7.3z"/>
  <path d="M510 368.8 c0 -0.6 -0.3 -0.8 -0.7 -0.5 -0.3 0.4 -1.3 -0.2 -2 -1.3 -1.1 -1.6 -1.4 -6.6 -1.3 -23.8 0.1 -24.3 0.1 -24.4 1.9 -26.6 1.5 -1.8 7.5 -1.6 9.4 0.3 0.9 0.9 1.2 7.5 1.2 24.9 0 21.1 -0.6 28.4 -2.2 26.9 -0.2 -0.3 -1.8 -0.1 -3.4 0.3 -1.9 0.6 -2.9 0.5 -2.9 -0.2z"/>
  <path d="M351.4 277.9 c-0.3 -0.5 -1 -0.7 -1.5 -0.3 -1.2 0.7 -7.9 -1.5 -7.9 -2.6 0 -0.5 -1.5 -1.3 -3.3 -1.9 -6.8 -2.3 -18 -16.3 -18.8 -23.6 0 -0.5 -0.6 -1.9 -1.2 -3 -1.8 -3.4 -2.6 -16.4 -1.4 -25.7 1 -8.5 6.2 -18.7 12.8 -25.6 5.3 -5.3 14.9 -10.8 21.1 -11.9 7.8 -1.3 21.8 -0.4 24.2 1.6 0.7 0.6 1.6 0.8 1.9 0.4 0.4 -0.3 0.7 -0.1 0.7 0.6 0 0.7 0.4 1 0.9 0.7 0.5 -0.3 1.4 0.1 2.1 0.9 0.7 0.8 1.8 1.5 2.6 1.5 2 0 11.3 9 13.9 13.5 1.2 2.2 2.9 6.1 3.6 8.8 0.7 2.6 1.6 4.7 2 4.7 0.8 0 0.8 0.2 1.3 14.5 0.2 5.5 0 10.5 -0.4 11 -0.5 0.6 -1.1 2.4 -1.4 4 -0.2 1.7 -0.5 3.2 -0.6 3.5 -0.1 0.3 -0.2 0.8 -0.1 1.3 0 0.4 -0.4 0.7 -1.1 0.7 -0.6 0 -0.9 0.3 -0.5 0.6 1.1 1.1 -3.9 9.8 -8 13.9 -9.4 9.6 -17 12.7 -30.9 13.1 -5.2 0.1 -9.7 -0.2 -10 -0.7z m15.9 -7.6 c11.6 -3.7 17.3 -16.9 17 -39.3 -0.2 -14.3 -1.4 -22.7 -3.9 -26.5 -0.9 -1.4 -1.3 -2.5 -0.9 -2.5 1.7 0 -8.9 -9.2 -12.3 -10.6 -4.9 -2.1 -13.4 -1.3 -17.9 1.6 -3.4 2.2 -9.1 11 -9.8 15 -0.3 1.9 -0.8 4.3 -1.1 5.2 -3.5 11.6 -2.1 33.1 2.9 43.7 2.9 6.1 9.9 13.1 13.1 13.1 1.4 0 2.8 0.5 3.1 1 0.9 1.4 3.9 1.2 9.8 -0.7z"/>
  <path d="M503.4 276.5 c-2.1 -2.9 -1.8 -3.4 3 -5.4 3.2 -1.4 4.6 -2.7 5.4 -5.1 0.8 -2 1.1 -14.7 1.1 -36.2 0 -28.1 -0.3 -33.5 -1.6 -35.4 -0.8 -1.3 -2.2 -2.4 -2.9 -2.4 -0.8 0 -1.4 -0.4 -1.4 -0.8 0 -0.4 -1.3 -1.3 -3 -1.9 -3.5 -1.3 -3.9 -3.9 -0.7 -4.9 1.2 -0.4 9.9 -0.8 19.2 -0.8 14 -0.1 17.2 0.2 18.2 1.4 1.9 2.3 1.5 3.8 -0.9 4.6 -1.3 0.5 -2.5 0.8 -2.8 0.9 -0.3 0 -1.1 0.4 -1.7 0.8 -0.7 0.5 -1.3 0.5 -1.3 0 0 -0.4 -0.9 0.6 -2 2.4 -1.8 3 -1.9 4.9 -1.6 37.2 0.4 35.1 0.6 37 4.6 38 0.8 0.2 5.2 0.4 9.8 0.5 9.8 0.3 15.4 -1.8 19.2 -7.1 1.4 -1.9 3 -4 3.6 -4.6 0.5 -0.7 1.7 -3 2.6 -5.2 1.4 -3.7 6.1 -7.5 7.5 -6.2 1 1.1 0.3 8.3 -1.1 10.5 -0.4 0.6 -0.5 1.2 -0.2 1.2 0.2 0 0 1.5 -0.5 3.3 -1.3 4.1 -1.9 6.7 -2.3 9.2 -0.2 1.1 -0.9 3.2 -1.6 4.7 l-1.3 2.7 -33 0.3 c-31.8 0.3 -33 0.2 -34.3 -1.7z"/>
  <path d="M715.8 277.7 c-1.8 -0.4 -4 -1.1 -4.8 -1.4 -0.8 -0.3 -2.1 -0.7 -2.8 -0.9 -4.7 -1 -18.2 -12.6 -18.3 -15.9 0 -0.5 -0.7 -1.7 -1.4 -2.5 -1.5 -1.6 -5.5 -13.4 -6.2 -18 -0.7 -4.4 -0.1 -19.8 0.7 -20.7 0.3 -0.3 0.4 -0.6 1.3 -5.5 0.5 -2.1 1.2 -3.8 1.8 -3.8 0.6 0 0.8 -0.4 0.5 -0.9 -0.3 -0.5 0.1 -1.4 0.9 -2.1 0.8 -0.7 1.5 -1.9 1.5 -2.6 0 -0.8 0.5 -1.4 1 -1.4 0.6 0 1 -0.5 1 -1.2 0 -3 19 -18.1 19 -15.1 0 0.5 0.4 0.3 0.8 -0.4 1.1 -1.7 11.9 -3.2 17.9 -2.4 2.9 0.4 5.9 0.6 6.8 0.5 0.8 -0.1 1.7 0.2 2.1 0.7 0.3 0.5 1.5 0.9 2.8 0.9 2.8 0 10.5 4.8 16 10 4.5 4.3 10.1 14.3 12.3 22 0.9 2.9 0.9 23.1 0.1 23.6 -0.4 0.3 -0.8 1.8 -0.8 3.4 0 1.6 -0.6 4.1 -1.4 5.7 -0.8 1.5 -2.1 4.4 -2.9 6.3 -1.6 3.6 -5.4 8.7 -9.7 12.8 -3.4 3.3 -13.2 8.1 -16.9 8.4 -1.7 0.1 -3.1 0.6 -3.1 1 0 0.9 -13.8 0.6 -18.2 -0.5z m19.4 -8.7 c2.7 -1 4.6 -2.9 7.4 -7.2 2.1 -3.2 3.9 -6.4 4 -7 0.1 -0.7 0.8 -4.2 1.6 -7.8 2.2 -10.8 1.4 -30.9 -1.5 -38 -0.4 -0.8 -1.1 -2.6 -1.6 -4 -1.8 -4.9 -6.8 -10.5 -11.4 -12.9 -5.8 -3 -13.8 -2.5 -18.6 1 -3.7 2.7 -9.9 11.4 -10.7 14.9 -0.3 1.4 -0.7 3.6 -1 5 -0.6 2.7 -0.9 27.3 -0.4 32.8 0.2 1.8 0.7 3.5 1.2 3.8 0.4 0.3 0.6 0.9 0.3 1.4 -0.3 0.5 -0.1 1.1 0.5 1.5 0.5 0.3 1 1.4 1 2.4 0 1 1.7 4.4 3.7 7.5 3.5 5.2 4.3 5.8 9.8 7.5 6.1 1.8 8.6 1.6 15.7 -0.9z"/>
  <path d="M859.5 277.7 c-2.1 -1.2 -5.4 -4.8 -5.5 -5.9 0 -0.4 -0.7 -1.6 -1.5 -2.5 -0.8 -1 -4.2 -5.6 -7.6 -10.3 -3.4 -4.7 -7.4 -10.1 -8.8 -12 -1.4 -1.9 -2.6 -3.9 -2.6 -4.3 0 -0.4 -0.5 -1.1 -1.1 -1.5 -0.6 -0.4 -5.6 -7 -11.2 -14.7 -12.6 -17.3 -14.9 -20.1 -15.7 -19.4 -0.6 0.7 -0.9 55.3 -0.3 58 0.5 2.3 2.8 4.9 4.2 4.9 0.6 0 2.6 0.9 4.5 2.1 3.2 1.9 3.3 2.1 1.6 4 -1.6 1.7 -3.2 1.9 -14.2 1.9 -6.8 0 -13.3 -0.4 -14.3 -1 -2.9 -1.5 -1.3 -5.5 2.1 -5.2 0.3 0 1.8 -1 3.5 -2.3 l2.9 -2.3 0.3 -35.3 c0.2 -26.1 0 -35.9 -0.9 -37.5 -1.1 -2.1 -5.9 -4.9 -8.4 -4.9 -1.4 0 -1.9 -3.4 -0.7 -4.8 1.3 -1.5 23.9 -1.6 26.2 -0.2 2 1.3 7 8.1 7 9.4 0 0.6 0.4 1.1 0.8 1.1 0.5 0 2.2 1.9 3.9 4.2 1.7 2.4 7.1 9.7 12.1 16.3 5 6.6 10.1 13.5 11.4 15.3 4.2 6.1 8 10.2 8.9 9.6 0.5 -0.3 0.8 -10.8 0.8 -23.4 l-0.1 -23 -5.3 -2.5 c-6.4 -3 -6.9 -3.6 -5 -6.1 1.2 -1.7 2.8 -1.9 14.2 -1.9 14.6 -0.1 16.2 0.3 15.6 4 -0.3 1.3 -0.9 2.2 -1.3 2 -0.5 -0.3 -1.1 -0.1 -1.5 0.5 -0.4 0.6 -1.1 0.8 -1.6 0.4 -1.2 -0.7 -5.7 4.3 -5.8 6.5 0 0.9 -0.2 19.3 -0.3 41 -0.3 38.7 -0.3 39.4 -2.4 40.1 -1.1 0.5 -2.9 0.3 -3.9 -0.3z"/>
  <path d="M132.3 276.4 c-0.8 -2.1 0.4 -4.3 2.9 -5.3 1.3 -0.5 3.2 -1.7 4.3 -2.7 2.3 -2.1 7.5 -12.4 7.5 -14.8 0 -0.9 0.4 -1.6 1 -1.6 0.5 0 0.9 -0.3 0.8 -0.7 -0.1 -0.8 0.7 -3.2 2.5 -7.3 0.6 -1.4 1.1 -2.8 1.3 -3.2 0.1 -0.5 0.3 -1 0.4 -1.3 0.1 -0.3 0.3 -0.8 0.5 -1.2 1.4 -5.2 1.8 -6.3 2.6 -6.3 0.5 0 0.8 -0.3 0.7 -0.7 -0.3 -1.1 2.3 -8.5 3.4 -10 0.5 -0.6 1.1 -2.4 1.4 -3.9 0.3 -1.6 0.9 -3.3 1.5 -4 0.5 -0.6 0.6 -1.4 0.2 -1.7 -0.3 -0.4 -0.1 -0.7 0.5 -0.7 0.7 0 1.1 -0.3 1 -0.7 -0.3 -1.4 1.4 -6.3 2.2 -6.3 0.4 0 1.5 -2.7 2.4 -6 0.9 -3.3 2.2 -6 2.8 -6 0.6 0 0.8 -0.3 0.5 -0.7 -0.4 -0.3 -0.2 -1.2 0.3 -1.9 0.6 -0.6 1.3 -2.2 1.5 -3.5 0.8 -4 4.2 -5 6.8 -2.1 1.3 1.4 5.1 9.2 5.8 12 0.1 0.4 1.1 2.6 2.1 5 1.1 2.4 2 5.2 2.1 6.2 0.1 1.1 0.4 2 0.8 2 0.4 0 1.7 2.8 2.9 6.3 4.7 13 7.1 19.3 8.1 21.1 1.5 2.7 8 19.8 8.2 21.4 0 0.6 0.4 1.2 0.7 1.2 0.4 0 1 1.4 1.4 3.1 0.7 3.7 4.2 8.9 6.1 8.9 0.7 0 2.3 0.8 3.6 1.9 2 1.6 2.1 2.1 1 3.5 -1.1 1.4 -4 1.6 -19 1.6 -9.7 0 -18.1 -0.4 -18.8 -0.8 -1.9 -1.2 -0.3 -5.2 2.2 -5.8 1.3 -0.3 3.1 -1.4 4.1 -2.5 1.5 -1.7 1.5 -2.3 0.3 -6.6 -0.7 -2.7 -1.4 -5.1 -1.5 -5.5 -0.1 -0.5 -0.3 -1 -0.4 -1.3 -0.1 -0.3 -0.4 -0.9 -0.5 -1.5 -0.1 -0.5 -0.4 -1.2 -0.5 -1.5 -0.1 -0.3 -0.3 -1.1 -0.4 -1.7 -0.1 -1 -3.9 -1.3 -15.5 -1.3 l-15.4 0 -3.2 7.5 c-1.8 4.1 -3.1 8.3 -2.9 9.3 0.3 2.3 2.3 4.7 3.9 4.7 0.6 0 2 0.9 3 2 1.5 1.6 1.6 2.2 0.5 3.5 -1.8 2.2 -26.8 2.1 -27.7 -0.1z m52.7 -36 c0 -0.7 -0.9 -3.4 -2.1 -6.1 -1.2 -2.6 -3.4 -8.4 -4.9 -12.8 -1.8 -5 -3.4 -8.1 -4.4 -8.3 -0.9 -0.2 -1.5 0 -1.4 0.5 0.2 0.4 -1.4 4.9 -3.6 9.8 -5.9 13.8 -6 14 -6 14.5 -0.1 0.3 -0.4 1 -0.8 1.6 -1.3 2 0.3 2.3 11.8 2.2 8.5 -0.1 11.4 -0.4 11.4 -1.4z"/>
  <path d="M234.4 276.3 c-1.3 -2.2 0.8 -4.7 4.8 -5.7 1.7 -0.4 3 -1.6 3.7 -3.6 0.6 -2 1.1 -15.9 1.1 -37.2 0.1 -32.2 0 -34.3 -1.8 -36.7 -1 -1.4 -3.1 -2.7 -4.6 -2.9 -3.1 -0.4 -4.2 -2.2 -2.8 -4.9 0.9 -1.7 2.6 -1.8 21.4 -1.7 11.1 0.1 21.4 0.4 22.8 0.7 1.4 0.3 3.5 0.8 4.7 1.1 2.8 0.6 8.3 3.5 10.1 5.2 0.7 0.8 2.2 1.9 3.2 2.4 2.4 1.3 7.4 9.6 6.6 10.9 -0.4 0.5 -0.2 1.2 0.4 1.6 0.5 0.3 0.8 1.6 0.5 2.8 -0.3 1.2 -0.7 3.6 -0.9 5.2 -0.2 1.7 -0.5 3.1 -0.6 3.3 -0.1 0.1 -0.3 0.5 -0.5 1 -0.1 0.4 -0.6 1.8 -1.2 3.2 -1.2 2.7 -8.3 10 -8.3 8.4 0 -0.5 -0.3 -0.5 -0.8 0.1 -0.4 0.6 -3.1 2.1 -6.1 3.5 -4.5 2.1 -7 2.5 -14.7 2.5 l-9.2 0 0.3 15 c0.2 8.3 0.6 15.8 1 16.8 0.4 1 2.5 2.7 4.6 3.7 4.8 2.5 5.6 3.8 3.3 5.5 -1.5 1.1 -5.9 1.4 -18.9 1.5 -15.2 0 -17.1 -0.2 -18.1 -1.7z m42.9 -49.5 c1.8 -1.2 3.4 -2.6 3.5 -3 0.2 -0.5 1 -1.5 1.7 -2.2 3 -2.9 2.3 -22 -0.9 -25.1 -3.1 -3.1 -7 -4.8 -11.1 -4.8 -4.4 0 -8 1.7 -6.9 3.4 0.3 0.5 0.2 0.9 -0.3 0.9 -0.4 0 -0.9 6.1 -1.1 13.5 -0.1 7.4 -0.3 14 -0.5 14.6 -0.3 1.5 5.3 4.4 9.2 4.7 2.1 0.2 4.4 -0.6 6.4 -2z"/>
  <path d="M418.1 277.1 c-2.2 -1.4 -0.3 -4.9 3.3 -6.1 1.9 -0.6 3.8 -2.1 4.5 -3.6 0.8 -1.8 1.1 -13.1 1.2 -37.2 l0 -34.6 -2.5 -2.7 c-1.4 -1.4 -3.9 -2.9 -5.6 -3.2 -3.2 -0.7 -4.2 -3.8 -1.7 -5.4 0.6 -0.4 9.1 -0.8 18.8 -0.9 19.2 -0.1 22.1 0.5 19.9 4.5 -0.6 1.2 -1.5 2.1 -2.1 2.1 -2 0 -7.9 3.2 -7.4 4 0.3 0.5 0.2 1.1 -0.2 1.3 -1 0.6 -0.7 69.2 0.2 70.7 1.9 3.2 9.4 4.3 19.4 3 9.5 -1.3 13.3 -4.2 18.6 -14.4 4 -7.6 6.4 -9.7 8.9 -7.7 1.5 1.3 0.9 5.3 -2.5 15.6 -1.1 3.3 -2.2 7.8 -2.5 10 -0.2 2.1 -0.7 4.2 -1 4.5 -1 0.9 -67.8 1.1 -69.3 0.1z"/>
  <path d="M604.1 275.8 c-1 -2.5 1.3 -5.3 3.5 -4.4 0.7 0.3 2.2 -0.7 3.5 -2.1 2.3 -2.3 2.4 -3.2 2.4 -15.6 0 -13.4 -0.1 -14 -4.7 -21.7 -1.1 -1.9 -3.6 -6.4 -5.5 -10 -1.9 -3.6 -4 -7.2 -4.7 -8 -0.6 -0.8 -2.2 -3.5 -3.6 -6 -5.7 -10.8 -10.3 -15.1 -18.4 -17.5 -4.1 -1.2 -4.9 -2.6 -3.5 -5.5 0.6 -1.3 3.8 -1.5 21.8 -1.5 14.1 0 21.4 0.4 22.2 1.2 2.1 2.1 0.5 4.6 -3.5 5.7 -5.7 1.6 -6.4 3.4 -3.3 8.3 1.4 2.2 2.3 4.4 2 4.7 -0.4 0.3 -0.2 0.6 0.4 0.6 0.6 0 1.9 2 3 4.5 1 2.5 2.1 4.5 2.4 4.5 0.3 0 1.9 2.8 3.5 6.3 1.6 3.4 3.7 7.1 4.7 8.2 1.7 1.8 1.9 1.9 2.8 0.3 0.5 -0.9 1.6 -2.4 2.4 -3.2 0.8 -0.8 1.5 -1.7 1.5 -2.1 0 -0.3 2.7 -5 6 -10.5 3.3 -5.5 6 -10.2 6 -10.6 0 -0.3 0.9 -1.9 2 -3.5 1.8 -2.4 1.9 -3.1 0.8 -4.9 -0.7 -1.1 -2.2 -2 -3.3 -2 -3.2 -0.1 -5.8 -2.6 -5 -4.9 0.3 -1.2 0.9 -2.1 1.3 -2.2 3 -0.4 28.5 -0.3 29.2 0.1 1.3 0.8 1.6 5.5 0.3 5.5 -0.6 0 -1.5 0.3 -1.9 0.8 -0.4 0.4 -1.6 0.7 -2.5 0.7 -1.7 0 -12.2 12 -11.9 13.6 0.1 0.4 -0.2 1 -0.7 1.3 -0.4 0.3 -1.7 2.2 -2.7 4.1 -1.1 1.9 -2.2 3.7 -2.5 4 -0.4 0.3 -1.2 1.6 -1.9 3 -2.5 5.2 -6 10.4 -7.1 10.8 -0.6 0.2 -1.1 1 -1.1 1.8 0 0.8 -0.4 1.4 -1 1.4 -0.5 0 -1 0.7 -1 1.5 0 0.9 -0.6 1.8 -1.4 2.1 -1.2 0.5 -2.9 3.8 -2.8 5.5 0.1 0.3 0.2 6.2 0.3 13 0.1 12.4 0.8 15.6 3.8 17.4 1.5 0.9 2.1 1.1 4 1.4 1.5 0.2 2.2 3.3 1 4.7 -0.9 1.1 -5 1.4 -18.6 1.4 -17.1 0 -17.4 0 -18.2 -2.2z"/>
 </g>
</svg>